<svg width="359" height="90" viewBox="0 0 359 90" fill="none" xmlns="http://www.w3.org/2000/svg">
<g clip-path="url(#clip0_3_9532)">
<path d="M0 77.6223L7.91438 64.9367C7.91438 64.9367 13.2418 69.0626 21.1664 69.0626C25.7371 69.0626 37.4553 69.0626 37.4553 52.2511V22.908H9.43795V1.97058H47.9566V52.2511C47.9566 80.065 34.7047 90 22.2196 90C9.73448 90 0 77.6223 0 77.6223Z" fill="white"/>
<path d="M81.5872 23.9753C93.3156 23.9753 105.034 34.2182 105.034 56.9825C105.034 79.7468 93.3054 89.9897 81.5872 89.9897C69.869 89.9897 58.2939 79.7468 58.2939 56.9825C58.2939 34.2182 70.0224 23.9753 81.5872 23.9753ZM68.6419 56.9825C68.6419 64.4748 73.6626 69.0523 81.5872 69.0523C89.5118 69.0523 94.5324 64.4646 94.5324 56.9825C94.5324 49.5005 89.6549 44.9127 81.5872 44.9127C73.5194 44.9127 68.6419 49.5005 68.6419 56.9825Z" fill="white"/>
<path d="M116.906 8.99076C116.906 4.04379 120.925 0 125.731 0C130.537 0 134.688 4.03353 134.688 8.99076C134.688 13.948 130.669 17.8481 125.731 17.8481C120.792 17.8481 116.906 13.8146 116.906 8.99076ZM134.402 23.9754C134.402 23.9754 130.905 41.4027 130.905 56.9825C130.905 72.5624 134.402 89.9897 134.402 89.9897H117.039C117.039 89.9897 120.536 72.5624 120.536 56.9825C120.536 41.4027 117.039 23.9754 117.039 23.9754H134.402Z" fill="white"/>
<path d="M185.681 66.0041L192.379 81.9021C192.379 81.9021 184.464 90 170.302 90C158.42 90 146.549 80.065 146.549 57.9062C146.549 35.7475 159.801 23.9753 172.133 23.9753C184.464 23.9753 193.902 34.0643 193.902 47.5094C193.902 60.9545 175.63 63.859 165.128 63.859C162.695 63.859 160.251 63.7051 158.277 63.5511C160.261 67.0612 164.372 69.0523 170.302 69.0523C179.74 69.0523 185.681 65.9938 185.681 65.9938V66.0041ZM157.817 53.1645C159.647 53.3185 161.468 53.4724 163.298 53.4724C166.948 53.4724 178.37 53.0106 178.37 47.5094C178.37 46.288 177.153 44.9127 171.672 44.9127C163.605 44.9127 159.494 48.5768 157.817 53.1645Z" fill="white"/>
<path d="M204.229 34.5262H211.991C210.16 31.4677 209.25 27.9576 209.25 24.1293C209.25 9.45262 218.995 1.97058 229.65 1.97058C240.304 1.97058 246.399 8.24153 246.399 8.24153L242.595 24.2935C242.595 24.2935 238.331 22.9182 233.31 22.9182C227.063 22.9182 219.762 23.9856 219.762 29.3329C219.762 31.324 220.222 32.9969 221.132 34.5262H242.298V58.83C242.298 58.83 234.68 56.5412 226.919 55.6175C227.226 72.2751 230.416 90 230.416 90H213.054C213.054 90 216.254 72.2751 216.561 55.7612C210.017 56.6747 204.229 58.8197 204.229 58.8197V34.5159V34.5262Z" fill="white"/>
<path d="M270.592 23.9753C270.592 33.7564 269.528 41.4026 268.608 48.2791C267.851 53.6264 267.084 57.3007 267.084 61.4266C267.084 67.0817 270.438 69.0626 275.152 69.0626C281.246 69.0626 286.42 67.0715 289.764 65.3985V56.9928C289.764 41.4026 286.267 23.9856 286.267 23.9856H303.63C303.63 23.9856 300.132 41.4129 300.132 56.9928C300.132 72.5727 303.63 90 303.63 90H289.774V80.5268C288.097 83.7393 283.833 90 274.242 90C262.667 90 256.736 79.1515 256.736 63.2535C256.736 57.7523 257.503 52.405 258.26 46.7499C259.17 40.3352 260.54 34.5261 256.736 23.9753H270.592Z" fill="white"/>
<path d="M313.958 90C313.958 90 317.455 72.5727 317.455 56.9928C317.455 23.9856 313.958 1.97058 313.958 1.97058H327.813V56.9928C327.813 72.583 331.31 90 331.31 90H313.947H313.958Z" fill="white"/>
<path d="M341.637 90C341.637 90 345.134 72.5727 345.134 56.9928C345.134 23.9856 341.637 1.97058 341.637 1.97058H355.492V56.9928C355.492 72.583 358.989 90 358.989 90H341.627H341.637Z" fill="white"/>
</g>
<defs>
<clipPath id="clip0_3_9532">
<rect width="359" height="90" fill="white"/>
</clipPath>
</defs>
</svg>
